<?xml version="1.0" encoding="utf-8"?>
<!-- Generator: Adobe Illustrator 25.0.1, SVG Export Plug-In . SVG Version: 6.00 Build 0)  -->
<svg version="1.1" id="Layer_1" xmlns="http://www.w3.org/2000/svg" xmlns:xlink="http://www.w3.org/1999/xlink" x="0px" y="0px"
	 viewBox="0 0 776.2 259.9" style="enable-background:new 0 0 776.2 259.9;" xml:space="preserve">
<style type="text/css">
	.st0{fill:#EE2025;}
</style>
<g>
	<path class="st0" d="M776.2,56.2c-0.4,0-0.8-0.1-1.2-0.1c-16.6,0-33.1,0-49.7,0c-0.3,0-0.6,0-1,0c0,6.1,0,12.1,0,18.3
		c-0.6,0-1,0.1-1.4,0.1c-18.4,0-36.9,0-55.3,0c-1.2,0-1.4-0.5-1.4-1.5c0-5.6,0-11.2,0-16.9c-17,0-33.9,0-50.9,0c0,0.7,0,1.4,0,2.1
		c0,5,0,10.1,0,15.1c0,1-0.3,1.2-1.2,1.2c-17.9,0-35.8,0-53.8,0c-1,0-1.1-0.5-1.1-1.3c0-10.4,0-20.7,0-31.1c0-2.5,0-2.5,2.5-2.5
		c71,0,142,0,213,0c0.5,0,1,0,1.4,0.1C776.2,45.3,776.2,50.7,776.2,56.2z"/>
	<path class="st0" d="M776.2,35.3c-0.7,0-1.4,0-2,0c-70.7,0-141.3,0-212,0c-2.8,0-2.8,0-2.8-2.8c0-6.3,0-12.6,0-18.8
		c0-1.6,0-1.6,1.6-1.6c71.2,0,142.3,0,213.5,0c0.6,0,1.2,0,1.8-0.1C776.2,19.8,776.2,27.5,776.2,35.3z"/>
	<path class="st0" d="M0,90.7c0.2-1.1,0.4-2.1,0.5-3.2c0.3-2,0.5-4,0.7-6c0.1-1,0.5-1.4,1.6-1.4c18.6,0,37.1,0,55.7,0
		c0.4,0,0.9,0.1,1.4,0.1c-2.1,8-2.6,16.1-1.9,24.2c0.8,8.1,2.9,15.8,6.7,23.2c-0.6,0-1,0.1-1.4,0.1c-19.1,0-38.2,0-57.4,0
		c-1,0-1.4-0.4-1.7-1.3c-1.8-6.1-3.2-12.4-3.8-18.8c-0.1-1.1-0.3-2.2-0.5-3.2C0,99.8,0,95.3,0,90.7z"/>
	<path class="st0" d="M776.2,8.6c-0.5,0-1-0.1-1.4-0.1c-71,0-142.1,0-213.1,0c-2.4,0-2.4,0-2.4-2.3c0-1.7,0-3.4,0-5
		c0-0.7,0.2-1,0.9-0.9c0.7,0,1.4,0,2,0c70.7,0,141.4,0,212.2,0c0.6,0,1.2,0,1.8-0.1C776.2,3,776.2,5.8,776.2,8.6z"/>
	<path d="M373.2,259.9c-0.7-0.2-1.3-0.4-2-0.6c-6.3-1.3-10.5-5.9-10.9-12.4c-0.3-4.8-0.2-9.7-0.3-14.5c0-4.8,0-9.6,0-14.4
		c0-1.1,0.3-1.5,1.4-1.4c2,0.1,4,0,6,0c1.6,0,1.6,0,1.6,1.6c0,8.6,0,17.3,0,25.9c0,1.3,0.2,2.6,0.6,3.9c1.1,3.2,4.4,5,7.9,4.5
		c1.6-0.3,3.3-0.4,4.7-1.5c1.8-1.5,2.4-3.6,2.5-5.8c0.1-3,0.1-6.1,0.1-9.1c0-6,0-11.9,0-17.9c0-1.6,0-1.6,1.6-1.6c2.1,0,4.2,0,6.2,0
		c0.9,0,1.4,0.2,1.4,1.3c0,8.7,0.1,17.3,0,26c0,1.9-0.3,3.8-0.7,5.7c-1.3,5.6-5.3,8.4-10.6,9.8c-0.7,0.2-1.4,0.4-2.1,0.6
		C378.2,259.9,375.7,259.9,373.2,259.9z"/>
	<path d="M442.6,259.9c-0.1-0.1-0.1-0.2-0.2-0.2c-6.3-1.2-9.4-5.5-10.6-11.4c-0.9-4.6-0.7-9.2,1.3-13.6c2.2-5,6.1-7.7,11.7-7.8
		c3.2-0.1,5.9,1.2,8,3.7c0.1,0.2,0.3,0.3,0.4,0.4c0,0,0.1,0.1,0.4,0.1c0-4.8,0-9.5,0-14.3c2.7,0,5.2,0,7.7,0c0.2,0,0.5,0.3,0.6,0.6
		c0.1,0.3,0,0.7,0,1.1c0,13,0,26.1,0,39.1c0,1-0.3,1.4-1.3,1.3c-1.9-0.1-3.8,0-5.8,0c-0.8,0-1.1-0.3-1-1.1c0-0.9,0-1.8,0-2.6
		c-1.4,1.2-2.8,2.4-4.3,3.4c-0.9,0.6-2.2,0.8-3.2,1.2C445,259.9,443.8,259.9,442.6,259.9z M453.7,243.5c-0.3-1.7-0.5-3.3-1-5
		c-0.7-2.5-3.3-4.3-5.5-4.4c-3.4-0.2-5.5,1.6-6.4,4c-1.3,3.4-1.3,6.8-0.2,10.2c1.4,4.3,4.1,4.8,7.6,4.4c1.3-0.2,2.5-0.9,3.4-2.2
		C453.1,248.4,453.5,246.1,453.7,243.5z"/>
	<path d="M219.6,259.9c-0.6-0.2-1.1-0.4-1.7-0.5c-3.9-1-6.4-4.3-6.4-8.3c0-2.7,0.5-5.2,2.3-7.2c1.9-2.1,4.4-2.8,7-3.3
		c2.3-0.4,4.6-0.6,6.8-1c2.1-0.4,3-1.2,3-2.8c0-1.8-0.7-2.8-2.5-3c-1.4-0.2-2.8-0.2-4.1-0.1c-1.8,0.1-2.9,1.2-3.3,2.9
		c-0.2,1-0.7,1.2-1.7,1.2c-1.8-0.1-3.7-0.1-5.5,0c-1,0-1.2-0.3-0.9-1.2c0.1-0.4,0.1-0.9,0.3-1.3c1.2-4.8,4.3-7.5,9.5-8.2
		c3.8-0.5,7.5-0.2,11.1,1.2c3.6,1.4,5.4,3.9,5.4,7.8c0,6.1,0,12.2,0,18.2c0,1.2,0.1,2.4,1.3,3.2c0.3,0.2,0.3,0.8,0.5,1.4
		c-2.3,0-4.3,0-6.3,0c-2.9,0-2.9,0-3.4-3c0-0.1-0.1-0.1-0.2-0.3c-0.2,0.1-0.5,0.2-0.6,0.4c-2,1.9-4.2,3.2-7,3.6
		c-0.1,0-0.2,0.2-0.4,0.3C221.8,259.9,220.7,259.9,219.6,259.9z M230.8,243.9c-0.9,0.3-1.5,0.6-2.2,0.8c-1.8,0.4-3.7,0.7-5.5,1.2
		c-3.1,0.8-4.4,4.2-2.6,6.5c1,1.3,2.5,1.4,4,1.3c2.7-0.2,5.6-1.9,6-4.9C230.7,247.3,230.7,245.7,230.8,243.9z"/>
	<path d="M117.4,259.9c-1.1-0.3-2.3-0.6-3.4-1c-4.5-1.7-7.1-5.2-8.4-9.6c-1.8-6-1.1-11.8,2.5-17c2.1-3,5-4.6,8.6-5.3
		c3.8-0.7,7.5-0.5,11,1c3.7,1.5,6.2,4.4,7.5,8.1c2.4,6.7,1.9,13.2-2.7,19c-2,2.6-4.8,3.9-8,4.5c-0.2,0-0.5,0.2-0.7,0.3
		C121.7,259.9,119.5,259.9,117.4,259.9z M113.2,242.9c0,2.7,0.2,5.1,1.8,7.3c1.7,2.3,4,3.1,6.7,2.8c2.7-0.3,4.5-1.9,5.5-4.5
		c1.1-3.1,1.2-6.2,0.4-9.2c-1.2-4.4-4-6.1-8.4-5.5c-1.5,0.2-2.8,1-3.8,2.3C113.6,238.2,113.2,240.6,113.2,242.9z"/>
	<path d="M605.5,259.9c-0.5-0.2-1.1-0.4-1.6-0.5c-6.5-1.7-10-6-10.8-12.4c-0.5-3.9-0.3-7.8,1.2-11.5c2.1-5.3,7-8.6,12.6-8.6
		c3.6-0.1,7,0.5,9.9,2.8c3.4,2.6,5,6.2,5.4,10.4c0.2,1.7,0.2,3.5,0.3,5.4c-7.2,0-14.2,0-21.2,0c-0.7,3.2,1.7,6.9,4.9,7.6
		c3,0.6,5.5,0,7.2-2.8c0.2-0.3,0.6-0.5,0.8-0.5c2.6,0,5.1,0,7.9,0c-0.3,1-0.5,1.8-0.9,2.6c-2.2,4.1-5.5,6.7-10.2,7.4
		c-0.2,0-0.3,0.2-0.4,0.3C608.9,259.9,607.2,259.9,605.5,259.9z M601.5,240c4.1,0,8.2,0,12.3,0c0.2-3.4-2.7-6-5.4-6.3
		C604.4,233.2,601.7,236.2,601.5,240z"/>
	<path d="M321.1,259.9c-0.5-0.2-1.1-0.4-1.6-0.5c-6.1-1.4-10.2-6.1-10.8-12.3c-0.4-4.2-0.3-8.2,1.4-12.1c1.9-4.3,5.3-6.9,9.8-7.8
		c3.7-0.7,7.3-0.4,10.7,1.3c4,2.1,6.2,5.6,7,9.9c0.4,2.2,0.4,4.6,0.7,7c-7.3,0-14.3,0-21.3,0c-0.6,3.8,1.8,6.9,4.8,7.6
		c3,0.6,5.5,0.1,7.2-2.7c0.2-0.3,0.6-0.6,0.9-0.6c2.5,0,5,0,7.7,0c-0.2,1.9-1.1,3.4-2.2,4.9c-2.2,2.9-5.2,4.6-8.8,5.1
		c-0.2,0-0.3,0.2-0.5,0.3C324.5,259.9,322.8,259.9,321.1,259.9z M329.3,240c0.1-2.3-0.8-4.1-2.6-5.3c-2.3-1.5-5.3-1.5-7.3,0.3
		c-1.5,1.3-2.2,3-2.3,5.1C321.2,240,325.2,240,329.3,240z"/>
	<path d="M755.8,259.9c-1.3-0.4-2.6-0.8-3.8-1.3c-5.3-2.2-8.1-6.3-8.7-12c-0.3-3.3-0.2-6.5,0.7-9.7c1.8-6.2,7-10,13.4-10.1
		c3.5,0,6.8,0.6,9.7,2.8c3.3,2.5,4.9,6,5.3,10.1c0.2,1.5,0.2,3,0.3,4.5c0.1,0.9-0.2,1.2-1.2,1.2c-6.5,0-13,0-19.6,0
		c-0.2,0-0.3,0-0.5,0c-0.5,3,1.3,6.2,4.2,7.3c2.8,1.1,6.3,0.4,7.9-2.4c0.2-0.3,0.6-0.7,0.8-0.7c2.6-0.1,5.1,0,7.7,0
		c0,1.6-0.7,2.9-1.5,4c-2.3,3.3-5.4,5.4-9.4,5.9c-0.2,0-0.3,0.2-0.5,0.3C759.1,259.9,757.4,259.9,755.8,259.9z M764.1,240
		c-0.1-3.8-2.9-6.8-7.3-6.3c-2.5,0.3-4.9,3.1-5.1,6.3C755.9,240,759.9,240,764.1,240z"/>
	<path d="M478.1,259.9c-0.6-0.2-1.2-0.4-1.9-0.6c-3.5-1-6.5-2.8-8.6-5.9c-1.4-2.2-2-4.7-2.2-7.2c-0.2-3.5-0.1-7,1.1-10.4
		c1.9-5.1,7-8.8,12.5-8.9c3.3-0.1,6.5,0.3,9.3,2.1c3.5,2.3,5.5,5.6,6.2,9.7c0.3,1.8,0.3,3.7,0.4,5.6c0.1,0.9-0.3,1.2-1.3,1.2
		c-6.2,0-12.4,0-18.6,0c-0.4,0-0.9,0-1.3,0c-0.4,2.9,1,5.7,3.3,6.9c2.4,1.3,5.5,1.1,7.4-0.5c0.3-0.2,0.7-0.5,0.8-0.9
		c0.6-1.4,1.6-1.5,2.9-1.4c2.1,0.1,4.1,0,6.3,0c-0.6,3.4-2.6,5.7-5,7.6c-1.7,1.3-3.7,2.1-5.9,2.4c-0.2,0-0.3,0.2-0.5,0.3
		C481.4,259.9,479.8,259.9,478.1,259.9z M473.9,240c4.2,0,8.3,0,12.4,0c0.1-2.3-0.8-4.1-2.5-5.3c-2.2-1.5-4.7-1.6-7.1-0.1
		C474.8,235.9,474.3,237.9,473.9,240z"/>
	<path d="M45.6,259.9c-0.8-0.2-1.6-0.5-2.3-0.7c-6.3-1.8-10.2-6.9-10.3-13.5c-0.1-3,0-5.9,0.8-8.7c1.6-6,7-10.1,13.2-10.1
		c4,0,7.7,0.7,10.7,3.5c2.6,2.4,4,5.3,4.4,8.8c0.2,1.7,0.1,3.4,0.3,5.1c0.1,1-0.3,1.2-1.2,1.2c-6.2,0-12.5,0-18.7,0
		c-0.4,0-0.7,0-1,0c-0.7,2.7,1.1,6.7,4.7,7.6c3,0.7,6.1-0.3,7.2-2.8c0.1-0.3,0.6-0.6,0.9-0.6c2.2-0.1,4.3,0,6.5,0c0.4,0,0.7,0,1.4,0
		c-0.4,1.1-0.5,2.1-1,2.9c-2.2,3.9-5.5,6.4-10.1,7.1c-0.2,0-0.4,0.2-0.6,0.3C48.8,259.9,47.2,259.9,45.6,259.9z M53.7,240
		c0.3-2-1.1-4.6-2.9-5.6c-2.2-1.1-4.5-1.2-6.5,0.2c-1.8,1.2-2.6,3.1-2.7,5.4C45.7,240,49.7,240,53.7,240z"/>
	<path d="M635.8,259.9c-0.6-0.2-1.3-0.4-1.9-0.5c-5.1-1-8.2-4.2-9-9.2c-0.1-0.9,0-1.3,1-1.2c2.1,0.1,4.2,0,6.2,0
		c0.4,0,1.1,0.4,1.1,0.7c0.4,2.3,1.9,3.4,4,3.6c1.8,0.2,3.7,0.1,5.6-0.2c1.1-0.1,2.1-0.8,2.2-2.2c0.1-1.3-0.4-2.2-1.9-2.6
		c-2.2-0.7-4.5-1.2-6.8-1.9c-2.1-0.6-4.3-1.3-6.3-2.2c-3.7-1.7-4.7-4.8-4-8.6c0.8-4.7,4.4-7.9,9.2-8.6c3.9-0.6,7.8-0.4,11.5,1.2
		c3.5,1.6,5.8,5,5.6,8.8c-0.4,0-0.8,0.1-1.1,0.1c-1.6,0-3.3,0-4.9,0c-1.2,0.1-2-0.1-2.3-1.5c-0.2-1.2-1.3-1.9-2.4-2.2
		c-1.8-0.6-3.7-0.6-5.5,0c-1.4,0.5-2,1.3-1.9,2.6c0.1,1.3,0.9,1.8,2.1,2.1c3.5,0.9,7.1,1.8,10.6,2.9c3,1,5.4,2.7,6.4,6
		c1.3,4.7-1.2,9.7-5.9,11.6c-1.2,0.5-2.5,0.7-3.8,1c-0.2,0.1-0.4,0.2-0.6,0.3C640.4,259.9,638.1,259.9,635.8,259.9z"/>
	<path d="M667,259.9c-0.7-0.2-1.3-0.4-2-0.6c-4.5-0.8-7.8-4.1-8.7-8.6c-0.3-1.6-0.1-1.8,1.5-1.8c1.9,0,3.8,0,5.6,0
		c0.7,0,1.1,0.1,1.2,0.8c0.4,2.3,2,3.4,4.2,3.6c1.7,0.2,3.5,0.1,5.2-0.2c1.6-0.3,2.4-1.3,2.4-2.4c0-1.2-0.7-2.1-2.4-2.6
		c-3.1-0.9-6.2-1.6-9.2-2.5c-1.7-0.5-3.3-1.3-4.8-2.2c-3.5-2.2-3.5-7.5-2-10.5c1.9-3.8,5.2-5.7,9.3-6.1c3.9-0.4,7.9-0.2,11.5,1.8
		c3,1.6,4.3,4.3,4.8,7.5c0,0.3-0.5,0.8-0.8,0.8c-2.2,0.1-4.3,0.1-6.5,0c-0.3,0-0.8-0.4-0.9-0.8c-0.6-1.9-1.8-3-3.8-3.1
		c-1.5-0.1-3,0-4.5,0.3c-1.3,0.2-2.1,1.4-2,2.4c0.1,1.2,0.9,1.9,2,2.2c2.9,0.7,5.8,1.4,8.7,2.2c2.6,0.7,5.2,1.7,7,3.9
		c3.5,4.5,1.7,11.4-3.6,13.9c-1.5,0.7-3.2,1-4.8,1.5c-0.2,0.1-0.4,0.2-0.6,0.3C671.6,259.9,669.3,259.9,667,259.9z"/>
	<path d="M289.2,259.9c-1.2-0.4-2.5-0.8-3.7-1.3c-3.8-1.6-5.9-4.7-6.9-8.5c-1.5-5.6-1.4-11.2,1.5-16.5c2-3.8,5.3-5.9,9.6-6.6
		c3.2-0.5,6.3-0.2,9.3,0.9c4.1,1.4,6.3,4.4,7.1,8.5c0.1,0.5,0.2,1.1,0.3,1.7c0,0.2,0,0.3,0,0.6c-0.5,0-0.9,0.1-1.4,0.1
		c-1.9,0-3.8,0-5.6,0c-0.8,0-1.3-0.1-1.5-1.1c-0.5-2.2-2-3.6-3.9-3.9c-2.9-0.4-5,0.5-6.2,2.6c-1.5,2.7-1.7,5.6-1.4,8.5
		c0.2,1.7,0.6,3.5,1.3,5.2c1,2.3,3.4,3.2,6.2,2.8c2.1-0.3,3.6-1.7,4-4.2c0.2-1.1,0.6-1.4,1.6-1.3c2.3,0.1,4.5,0,6.9,0
		c-0.1,2.4-0.9,4.5-2.2,6.4c-2.1,3.1-4.9,5.2-8.7,5.8c-0.1,0-0.2,0.2-0.4,0.3C293.2,259.9,291.2,259.9,289.2,259.9z"/>
	<path class="st0" d="M374.9,0c1.1,2.8,2.2,5.5,3.4,8.5c-19.8,0-39.4,0-59.2,0c1.2-2.8,2.4-5.6,3.5-8.5C340,0,357.4,0,374.9,0z"/>
	<path class="st0" d="M196.9,134.7c0.6,0,1,0,1.5,0c17.8,0,35.6,0,53.4,0c1,0,1.2,0.4,1.2,1.3c0,11,0,22.1,0,33.1
		c0,0.8,0,1.5,0.3,2.3c0.5-1.3,1.1-2.5,1.6-3.8c4.2-10.5,8.5-21,12.7-31.5c0.4-1.1,0.9-1.5,2.2-1.5c52.1,0,104.2,0,156.3,0
		c0.2,0,0.5,0,0.7,0c3,0,3,0,4.1,2.9c3.1,7.8,6.3,15.6,9.5,23.3c0.8,1.9,1.5,3.8,2.3,5.8c0.1,0.4,0.3,0.7,0.8,1c0-0.5,0-1,0-1.5
		c0-10.1,0-20.2,0-30.2c0-1,0.3-1.4,1.3-1.4c17.8,0,35.6,0,53.4,0c1.1,0,1.5,0.3,1.4,1.4c0,18.8,0,37.7,0,56.5c0,1.6,0,1.6-1.6,1.6
		c-26.2,0-52.4,0-78.6,0c-9.6,0-19.2-0.1-28.8-0.1c-0.9,0-1.3-0.3-1.6-1.1c-3.1-7.8-6.2-15.6-9.3-23.4c-0.4-0.9-0.8-1.3-1.9-1.3
		c-19.4,0-38.9,0-58.3,0c-0.9,0-1.3,0.3-1.7,1.1c-3.1,7.8-6.2,15.6-9.3,23.4c-0.3,0.8-0.6,1.3-1.7,1.3c-36.1,0-72.2,0-108.4,0
		c-1.7,0-1.7,0-1.7-1.7c0-18.7,0-37.4,0-56.2C196.9,135.8,196.9,135.4,196.9,134.7z"/>
	<path class="st0" d="M7.3,134.7c1.2,0,2.4,0,3.5,0c19,0,37.9,0,56.9,0c1,0,1.6,0.2,2.2,1c4.1,5.3,9.2,9.5,15.6,11.8
		c7.4,2.6,14.6,2.2,21.7-1.2c5.2-2.5,9.5-6.3,13-10.9c0.4-0.5,1.2-0.8,1.8-0.8c10,0,20.1,0,30.1,0c12.1,0,24.2,0,36.4,0
		c1,0,1.3,0.3,1.3,1.3c0,19,0,37.9,0,56.9c0,0.4,0,0.8-0.1,1.2c-0.8,0-1.4,0-2.1,0c-11.7,0-23.4,0-35.2,0c-1.1,0-1.4-0.3-1.4-1.4
		c0.1-5.1,0-10.2,0-15.4c0-0.5,0-1,0-1.5c-30.8,20.7-63.1,24.5-96.9,8.9C29.1,173.1,13.9,151.7,7.3,134.7z"/>
	<path class="st0" d="M559.3,102c0-0.5,0-0.9,0-1.4c0-6.4,0-12.8,0-19.2c0-0.9,0.2-1.3,1.2-1.3c1.3,0,2.6,0,3.8,0
		c16.2,0,32.5,0,48.7,0c0.4,0,0.9,0,1.3,0c0.7,0,1.1,0.2,1,1c0,0.2,0,0.4,0,0.6c0,14.9,0,29.8,0,44.6c0,1.1-0.2,1.4-1.4,1.4
		c-30.6,0-61.3,0-91.9,0c-1.4,0-2.1-0.5-2.7-1.7c-6.3-11.6-12.7-23.2-19.1-34.8c-0.1-0.2-0.2-0.3-0.3-0.5c-0.1,0-0.2,0-0.4,0
		c0,1.4,0,2.7,0,4.1c0,10.1,0,20.2,0,30.4c0,0.3,0,0.6,0,0.8c0,1.7,0,1.7-1.7,1.7c-17.6,0-35.1,0-52.7,0c-1.7,0-1.7,0-1.7-1.7
		c0-14.8,0-29.6,0-44.4c0-1.2,0.3-1.6,1.5-1.6c33.4,0,66.7,0,100.1,0c1.3,0,2.1,0.4,2.7,1.6c3.6,6.6,7.2,13.1,10.9,19.7
		c0.1,0.2,0.3,0.5,0.4,0.7C559.1,102,559.2,102,559.3,102z"/>
	<path class="st0" d="M426.8,127.7c-0.7,0-1.2,0-1.7,0c-20.1,0-40.2,0-60.4,0c-1.2,0-1.8-0.4-2.3-1.5c-2.9-7.5-6-15-9-22.5
		c-1.4-3.6-2.8-7.1-4.2-10.7c-0.1-0.3-0.3-0.6-0.6-1.3c-0.6,1.6-1.2,2.8-1.7,4.1c-4.1,10.3-8.2,20.6-12.2,30.9c-0.4,1-1,1-1.9,1
		c-15,0-29.9,0-44.9,0c-5.1,0-10.2,0-15.4,0c-0.5,0-1,0-1.7,0c0.1-0.5,0.2-0.9,0.3-1.2c3.8-9.3,7.5-18.6,11.3-27.9
		c2.3-5.7,4.6-11.4,6.9-17.1c0.4-1,0.9-1.5,2-1.4c0.6,0.1,1.2,0,1.8,0c37.4,0,74.9,0,112.3,0c2,0,2,0,2.8,1.9
		c4,9.8,8,19.6,11.9,29.5c2,5.1,4.1,10.1,6.1,15.2C426.5,126.9,426.6,127.2,426.8,127.7z"/>
	<path class="st0" d="M524,134.8c0.5,0,0.8-0.1,1.1-0.1c29.7,0,59.3,0,89,0c1,0,1.2,0.3,1.2,1.2c0,19.3,0,38.5,0,57.8
		c0,0.3,0,0.6-0.1,1c-0.4,0-0.7,0.1-1.1,0.1c-18.6,0-37.3,0-55.9,0c-1,0-1.5-0.3-2-1.2c-3.5-6.5-7.1-12.9-10.6-19.4
		c-4.4-8-8.8-16.1-13.2-24.1c-2.6-4.7-5.1-9.4-7.7-14C524.5,135.7,524.3,135.3,524,134.8z"/>
	<path class="st0" d="M185.4,68.6c-0.7,0-1.2,0-1.7,0c-18.8,0-37.5,0-56.3,0c-1.3,0-1.9-0.3-2.6-1.5c-3.6-6.7-8.2-12.5-14.8-16.5
		c-9-5.4-18.3-5.9-27.8-1.3c-6.4,3.2-11.3,8.2-15,14.2c-1.9,3.2-3.4,6.7-5,10c-0.3,0.7-0.7,1-1.5,1c-18.9,0-37.8,0-56.8,0
		c-0.3,0-0.6-0.1-1.2-0.1c0.9-3,1.7-5.9,2.7-8.7c3.1-9,7.4-17.4,13.1-25c0.3-0.5,1.1-0.7,1.7-0.9c0.4-0.1,0.9,0,1.3,0
		c49.2,0,98.5,0,147.7,0c1.3,0,2.1,0.4,2.8,1.5c5.7,8.1,10.1,16.8,13.2,26.2C185.2,67.7,185.2,68.1,185.4,68.6z"/>
	<path class="st0" d="M724.2,134.8c0,19.9,0,39.6,0,59.5c-0.4,0-0.8,0.1-1.2,0.1c-18.5,0-37,0-55.5,0c-1.2,0-1.3-0.5-1.3-1.4
		c0-19,0-38,0-57c0-1,0.3-1.3,1.3-1.3c18.5,0,37,0,55.5,0C723.4,134.7,723.7,134.7,724.2,134.8z"/>
	<path class="st0" d="M405.2,74.5c-37.7,0-75.2,0-112.9,0c0.3-0.9,0.6-1.7,1-2.6c4.1-10.1,8.2-20.2,12.2-30.2
		c0.1-0.4,0.2-0.8,0.5-1.1c0.3-0.4,0.8-0.6,1.3-0.8c0.2-0.1,0.4,0,0.6,0c26.8,0,53.7,0,80.5,0c2.8,0,2.8,0,3.8,2.5
		c4.2,10.3,8.4,20.7,12.6,31C404.9,73.6,405,74,405.2,74.5z"/>
	<path class="st0" d="M189.8,85.5c0,0.6,0,1.1,0,1.5c0,13,0,26,0,39c0,1.7,0,1.7-1.8,1.7c-17.5,0-35,0-52.5,0c-8.4,0-16.7,0-25.1,0
		c-1.6,0-1.6,0-1.6-1.6c0-13,0-26.1,0-39.1c0-1.2,0.3-1.5,1.5-1.5c26,0,52.1,0,78.1,0C188.8,85.5,189.2,85.5,189.8,85.5z"/>
	<path class="st0" d="M543.7,74.6c-0.7,0-1.2,0-1.7,0c-32.3,0-64.6,0-96.9,0c-1.7,0-1.7,0-1.7-1.8c0-10.5,0-21,0-31.6
		c0-1.1,0.3-1.5,1.5-1.5c26.1,0,52.1,0,78.2,0c0.9,0,1.5,0.1,1.9,1c3.7,6.7,7.4,13.4,11.1,20.1C538.6,65.3,541.1,69.8,543.7,74.6z"
		/>
	<path class="st0" d="M167.3,35.3c-48.3,0-96.3,0-144.7,0c1.1-1.3,2-2.5,3-3.5c6.3-6.8,13.5-12.6,21.5-17.4c0.2-0.1,0.5-0.3,0.7-0.4
		c2.3-1.9,5-1.9,7.8-1.9c27.2,0.1,54.5,0,81.7,0.1c0.8,0,1.7,0.3,2.5,0.7c9.2,5,17.3,11.3,24.4,19C165.2,32.8,166.1,34,167.3,35.3z"
		/>
	<path class="st0" d="M695.2,127.7c-9.2,0-18.3,0-27.5,0c-1.6,0-1.6,0-1.6-1.6c0-14.7,0-29.4,0-44.2c0-1.9,0-1.9,1.8-1.9
		c18.2,0,36.3,0,54.5,0c1.8,0,1.8,0,1.8,1.8c0,14.8,0,29.7,0,44.5c0,1.2-0.4,1.4-1.4,1.4C713.6,127.7,704.4,127.7,695.2,127.7z"/>
	<path class="st0" d="M224.8,127.7c-8.8,0-17.7,0-26.5,0c-1.2,0-1.5-0.3-1.5-1.5c0-14.9,0-29.7,0-44.6c0-1.6,0-1.6,1.6-1.6
		c16.3,0,32.5,0,48.8,0c1.4,0,2.9,0.1,4.3,0c1.1,0,1.3,0.3,1.3,1.4c0,12.6,0,25.3,0,37.9c0,2.3-0.1,4.6,0,6.8c0,1.1-0.3,1.5-1.5,1.5
		C242.6,127.7,233.7,127.7,224.8,127.7C224.8,127.7,224.8,127.7,224.8,127.7z"/>
	<path class="st0" d="M224.8,74.6c-8.8,0-17.7,0-26.5,0c-1.1,0-1.5-0.3-1.5-1.5c0-10.7,0-21.4,0-32c0-1.1,0.4-1.3,1.4-1.3
		c17.6,0,35.3,0,52.9,0c2.2,0,1.8,0,1.8,1.9c0,10.5,0,21,0,31.4c0,1.2-0.3,1.5-1.6,1.5C242.5,74.5,233.7,74.6,224.8,74.6z"/>
	<path class="st0" d="M521.8,35.3c-1,0-1.7,0-2.5,0c-24.6,0-49.2,0-73.8,0c-0.2,0-0.5,0-0.7,0c-1.1,0.1-1.5-0.3-1.5-1.5
		c0.1-6.9,0-13.8,0-20.6c0-0.9,0.2-1.2,1.1-1.2c21.2,0,42.5,0,63.7,0c0.4,0,1,0.3,1.2,0.6c4.1,7.2,8.1,14.5,12.1,21.8
		C521.6,34.7,521.6,34.9,521.8,35.3z"/>
	<path class="st0" d="M389.1,35.3c-27,0-53.9,0-80.9,0c1.2-3,2.4-6,3.6-9c1.8-4.4,3.6-8.8,5.3-13.2c0.3-0.8,0.8-1.1,1.6-1.1
		c19.9,0,39.8,0,59.8,0c1,0,1.4,0.4,1.8,1.3c2.8,7.1,5.7,14.2,8.6,21.3C388.9,34.7,388.9,34.9,389.1,35.3z"/>
	<path class="st0" d="M197,12.1c18.6,0,37.2,0,55.8,0c0,0.3,0.1,0.6,0.1,0.9c0,7,0,14,0,21c0,1-0.3,1.3-1.3,1.3
		c-17.9,0-35.8,0-53.7,0c-0.6,0-1,0-1-0.8c0-7.4,0-14.7,0-22.1C196.9,12.4,196.9,12.3,197,12.1z"/>
	<path d="M170.8,258.9c-2.6,0-5,0-7.4,0c-0.8,0-0.8-0.6-0.8-1.2c0-3.4,0-6.9,0-10.3c0-6.1,0-12.2,0-18.2c0-1.2,0.4-1.5,1.5-1.5
		c1.8,0.1,3.6,0,5.4,0c0.8,0,1.2,0.3,1.1,1.1c0,0.9,0,1.8,0.1,2.9c2.1-3.3,5.1-4.8,8.9-4.7c3.8,0,6.8,1.4,8.3,5.1
		c0.7-0.8,1.3-1.6,2-2.2c3.9-4,11.3-3.8,15,0.4c1.6,1.8,2.3,3.9,2.3,6.3c0.1,7.2,0,14.5,0,21.7c0,0.2,0,0.4-0.1,0.7
		c-2.6,0-5.1,0-7.6-0.1c-0.3,0-0.7-0.8-0.7-1.2c-0.1-2.4,0-4.7,0-7.1c0-4-0.1-8.1-0.1-12.1c0-2.5-1.2-4-3.4-4.4
		c-2.4-0.5-4.8,0.5-5.7,2.7c-0.4,1-0.7,2-0.7,3.1c-0.1,5.9-0.1,11.8,0,17.6c0,1.1-0.2,1.6-1.4,1.5c-1.9-0.1-3.8-0.1-5.6,0
		c-0.9,0-1.2-0.3-1.2-1.3c0-6.1,0.1-12.2,0-18.2c0-1.3-0.4-2.7-1.1-3.8c-0.4-0.7-1.6-1.2-2.4-1.4c-1.1-0.2-2.2-0.1-3.3,0.2
		c-1.7,0.4-2.6,1.7-2.9,3.3c-0.2,1.1-0.3,2.3-0.3,3.5c0,5.4,0,10.7,0,16.1C170.8,257.7,170.8,258.2,170.8,258.9z"/>
	<path d="M546.5,243.8c0,1.1,0,2,0,2.9c0,3.5,0,7,0,10.6c0,1.6,0,1.6-1.7,1.6c-2.3,0-4.7,0-7.2,0c0-0.6,0-1,0-1.4
		c0-13.2,0-26.3,0-39.5c0-1,0.3-1.3,1.3-1.3c6.5,0.1,13-0.2,19.5,0.2c6.4,0.4,11.3,4.2,11.4,11.9c0,2.1-0.1,4.3-0.5,6.4
		c-0.8,4.1-3.5,6.6-7.4,7.6c-2.2,0.6-4.5,0.8-6.8,0.9C552.3,243.9,549.5,243.8,546.5,243.8z M546.7,224.3c0,4,0,8,0,11.9
		c3.2,0,6.4,0,9.5,0c2.2,0,4.2-1.7,4.7-3.9c0.2-1,0.2-2,0.2-3c0-2.7-1.6-4.8-4.3-5C553.5,224.1,550.2,224.3,546.7,224.3z"/>
	<path d="M0.4,216.7c0.9,0,1.6,0,2.4,0c6,0,11.9-0.1,17.9,0.2c5.7,0.2,10.9,3.5,11.8,10.4c0.3,2.7,0.2,5.3-0.4,7.9
		c-1.2,4.9-4.6,7.4-9.3,8c-3.6,0.5-7.2,0.4-10.9,0.5c-0.9,0-1.7,0-2.7,0c0,1.1,0,2.1,0,3.1c0,3.6,0,7.1,0,10.7c0,1-0.2,1.4-1.3,1.4
		c-2.1-0.1-4.2,0-6.2,0c-0.8,0-1.2-0.2-1.2-1.2c0-13.4,0-26.8,0-40.2C0.3,217.3,0.3,217.1,0.4,216.7z M9.1,236.5
		c2.9,0,5.8,0.2,8.6-0.1c4.1-0.4,5.5-1.9,6-5.4c0.4-3.2-0.7-6.1-4.3-6.7c-2.3-0.4-4.7-0.2-7-0.3c-1.1,0-2.2,0-3.3,0
		C9.1,228.3,9.1,232.3,9.1,236.5z"/>
	<path d="M418.6,258.9c0-5.8,0-11.5,0-17.1c0-1.2-0.1-2.5-0.2-3.7c-0.4-3.6-2.9-4.7-6.1-4.3c-3.7,0.5-5.3,3.3-5.4,6.8
		c-0.1,5.5,0,11,0,16.6c0,0.5,0,1,0,1.7c-1.8,0-3.6,0-5.3,0c-2.9,0-2.9,0-2.9-3c0-8.9,0-17.8,0-26.7c0-1.1,0.2-1.5,1.4-1.4
		c1.8,0.1,3.6,0,5.4,0c0.9,0,1.3,0.3,1.3,1.3c-0.1,0.9,0,1.7,0,3c0.5-0.6,0.8-0.9,1-1.2c2.3-3.2,5.7-4,9.3-3.8
		c1.5,0.1,3,0.5,4.4,1.1c3.7,1.5,5.3,4.5,5.4,8.3c0.1,7.1,0,14.2,0.1,21.2c0,1-0.2,1.4-1.3,1.4C423.3,258.8,421.1,258.9,418.6,258.9
		z"/>
	<path d="M252.9,232c0.9-1.1,1.6-2,2.4-2.7c2.4-2.1,5.3-2.7,8.5-2.3c2.1,0.2,4.1,0.8,5.9,2.1c2.1,1.5,3.3,3.7,3.3,6.1
		c0.2,7.6,0.2,15.2,0.3,22.8c0,0.7-0.3,0.9-0.9,0.9c-2.2,0-4.5,0-6.7,0c-1,0-0.8-0.6-0.8-1.2c0-6.1,0-12.2,0-18.3
		c0-3.4-1.2-5.1-4.3-5.6c-2.6-0.4-5.5,0.6-6.6,3.8c-0.4,1.3-0.7,2.7-0.7,4.1c-0.1,5.3-0.1,10.6,0,15.9c0,1.1-0.3,1.4-1.4,1.4
		c-1.9-0.1-3.8,0-5.6,0c-0.8,0-1.1-0.2-1.1-1c0-9.7,0-19.3,0-29c0-0.8,0.3-1.1,1.1-1.1c1.9,0,3.8,0,5.8,0c0.8,0,1,0.3,1,1
		C252.9,229.7,252.9,230.7,252.9,232z"/>
	<path d="M717.2,227.7c0,0.4,0.1,0.7,0.1,1c0,9.6,0,19.2,0,28.8c0,1.1-0.3,1.5-1.4,1.4c-1.7-0.1-3.4-0.1-5.2,0
		c-1.1,0.1-1.4-0.4-1.4-1.4c0-0.8,0-1.6,0-2.3c-1.5,1.1-2.8,2.3-4.3,3.2c-3.6,2-10.4,1.4-13.1-1.7c-1.8-2-2.5-4.4-2.6-6.9
		c-0.2-7-0.1-14.1-0.2-21.1c0-0.9,0.3-1.1,1.1-1.1c2,0,4.1,0.1,6.1,0c0.9,0,1.1,0.3,1.1,1.2c0,6.2,0,12.3,0,18.5
		c0,0.9,0.1,1.8,0.4,2.6c0.9,2.9,3.4,3.3,6,2.9c3.2-0.6,4.9-3,5-6.6c0-5.5,0-11,0-16.6c0-1.9,0-1.9,1.8-1.9c1.7,0,3.4,0,5,0
		C716.3,227.6,716.8,227.7,717.2,227.7z"/>
	<path class="st0" d="M507,8.5c-21.2,0-42.4,0-63.6,0c0-2.5,0-5,0-7.4c0-0.3,0.5-0.7,0.8-0.7c0.6-0.1,1.2,0,1.8,0
		c18.4,0,36.9,0,55.3,0c0.9,0,1.5,0.2,2,1.1c1.1,2.1,2.3,4.1,3.4,6.2C506.7,7.9,506.8,8.2,507,8.5z"/>
	<path class="st0" d="M196.9,8.4c0-2.7,0-5.3,0-8.1c0.5,0,1-0.1,1.4-0.1c17.8,0,35.6,0,53.4,0c0.9,0,1.2,0.2,1.2,1.1
		c0,2,0,4.1,0,6.1c0,0.6-0.1,1-0.9,1c-18.2,0-36.5,0-54.7,0C197.2,8.6,197.1,8.5,196.9,8.4z"/>
	<path d="M89.6,233.7c-1.3,0-2.4,0-3.5,0c-0.7,0-1.1-0.2-1.1-1c0.1-1.2,0.1-2.5,0-3.7c0-0.8,0.3-1.1,1.1-1c0.8,0,1.7,0,2.5,0
		c0.8,0,1-0.3,1-1c0-1.7,0-3.4,0.4-5.1c0.7-3.1,2.7-4.9,5.9-5.2c2-0.2,4-0.2,6-0.3c0.8,0,1.1,0.3,1.1,1.1c0,1.6,0,3.2,0,4.8
		c0,0.9-0.4,1-1.1,0.9c-0.8-0.1-1.5,0-2.3,0c-1,0.1-1.5,0.8-1.7,1.7c-0.5,3-0.4,3.1,2.6,3.1c2.6,0,2.6,0,2.6,2.7c0,1,0,1.9,0,3
		c-1.8,0-3.5,0-5.3,0c0,0.8-0.1,1.4-0.1,2c0,7,0,14.1,0,21.1c0,2.6,0,2.1-2,2.1c-1.6,0-3.2-0.1-4.8,0c-1.1,0.1-1.3-0.4-1.3-1.4
		c0-7.4,0-14.8,0-22.2C89.6,234.8,89.6,234.4,89.6,233.7z"/>
	<path class="st0" d="M130.6,8.5c-23.8,0-47.6,0-71.3,0c11.4-4.9,23.3-7.3,35.6-7.3C107.2,1.3,119.2,3.6,130.6,8.5z"/>
	<path d="M517.1,235.1c-1.8,0.2-3.4,0.2-5,0.5c-2.9,0.5-4.5,2.8-4.6,5.6c-0.2,5.2-0.2,10.4-0.3,15.6c0,0.6,0,1.3,0,2.1
		c-1.9,0-3.8,0-5.6,0c-2.7,0-2.7,0-2.7-2.6c0-9,0-18.1,0-27.1c0-1.6,0-1.6,1.6-1.6c2,0,4.1,0,6.3,0c0,1.6,0,3.1,0,4.7
		c0.1,0,0.2,0.1,0.3,0.1c0.6-0.7,1.1-1.5,1.7-2.2c1.9-2.4,4.4-3.3,7.4-3.2c0.3,0,1,0.5,1,0.7C517.3,230.1,517.2,232.6,517.1,235.1
		C517.2,235.1,517.1,235.2,517.1,235.1z"/>
	<path d="M724,258.9c0-10.5,0-20.8,0-31.2c2.6,0,5.1,0,7.7,0c0,1.6,0,3.2,0,4.8c0.1,0,0.2,0.1,0.3,0.1c0.3-0.4,0.6-0.7,0.8-1.2
		c1.8-3,4.4-4.4,7.8-4.6c1-0.1,1.6,0.1,1.5,1.3c-0.1,2,0,4.1,0,6.1c0,0.8-0.2,1.1-1.1,1c-2.1-0.1-4.2-0.1-6.1,1.2
		c-2.2,1.6-2.6,4-2.6,6.4c-0.1,4.8,0,9.7,0,14.5c0,1.5,0,1.5-1.5,1.5C728.4,258.9,726.3,258.9,724,258.9z"/>
	<path d="M591.8,235.4c-1.7,0-3.3-0.3-4.7,0.1c-3.9,0.9-5,3.1-5.1,6.9c-0.2,5-0.1,10.1,0,15.1c0,1.2-0.4,1.4-1.4,1.4
		c-1.9-0.1-3.8,0-5.8,0c-0.7,0-1.1-0.2-1.1-1c0-9.9,0-19.8,0-29.6c0-0.2,0-0.3,0.1-0.7c1.7,0,3.4,0,5.1,0c2.6,0,2.6,0,2.6,2.6
		c0,0.8,0,1.6,0,2.6c0.9-1.2,1.6-2.1,2.4-3c1.8-2.1,4.3-2.9,6.9-2.8c0.3,0,0.9,0.5,0.9,0.7C591.8,230.2,591.8,232.7,591.8,235.4z"/>
	<path d="M148.8,232.6c1.3-1.5,2.3-2.8,3.4-3.8c1.6-1.5,3.8-1.8,5.9-1.9c0.7,0,1.1,0.3,1,1.1c0,2.1,0,4.2,0,6.2c0,1-0.4,1.2-1.3,1.2
		c-1.4,0-2.9,0-4.2,0.3c-2.6,0.7-4.1,2.9-4.2,5.8c-0.1,5.4-0.2,10.8-0.2,16.2c0,1-0.3,1.3-1.3,1.3c-1.8-0.1-3.7-0.1-5.5,0
		c-1.2,0.1-1.4-0.5-1.4-1.5c0-8.1,0-16.2,0-24.2c0-1.5,0-3,0-4.4c0-0.8,0.2-1.2,1.1-1.1c1.9,0,3.8,0,5.6,0c0.8,0,1.1,0.3,1,1.1
		C148.8,229.9,148.8,231.1,148.8,232.6z"/>
	<path d="M84,235.2c-1.6,0.1-3,0.1-4.4,0.4c-3.4,0.6-5.2,2.6-5.2,6.1c-0.1,5.1-0.1,10.2-0.1,15.4c0,1.9,0,1.9-1.8,1.9
		c-1.8,0-3.5-0.1-5.3,0c-1,0-1.2-0.3-1.2-1.2c0-3.3,0-6.6,0-9.8c0-6.2,0-12.3,0-18.5c0-1.5,0-1.5,1.6-1.5c1.7,0,3.4,0.1,5.2,0
		c1,0,1.3,0.3,1.2,1.2c-0.1,1.1,0,2.3,0,3.8c0.6-0.8,1-1.4,1.4-1.9c1.9-2.7,4.5-4.1,7.9-3.8c0.3,0,0.8,0.4,0.8,0.7
		C84.1,230.3,84,232.7,84,235.2z"/>
</g>
</svg>
