<?xml version="1.0" encoding="utf-8"?>
<!-- Generator: Adobe Illustrator 25.0.1, SVG Export Plug-In . SVG Version: 6.00 Build 0)  -->
<svg version="1.1" id="Layer_1" xmlns="http://www.w3.org/2000/svg" xmlns:xlink="http://www.w3.org/1999/xlink" x="0px" y="0px"
	 viewBox="0 0 47.6 47.5" style="enable-background:new 0 0 47.6 47.5;" xml:space="preserve">
<style type="text/css">
	.st0{fill:#C6C6C6;}
</style>
<g id="Linkedin-8">
	<path class="st0" d="M0.8,15.8h9.9v31.7H0.8L0.8,15.8z M5.7,0c3.2,0,5.7,2.6,5.7,5.7c0,3.2-2.6,5.7-5.7,5.7S0,8.9,0,5.7l0,0
		C0,2.6,2.6,0,5.7,0"/>
	<path class="st0" d="M16.8,15.8h9.4v4.3h0.2c1.9-3.3,5.5-5.3,9.3-5.1c10,0,11.8,6.6,11.8,15.1v17.4h-9.9V32.1
		c0-3.7-0.1-8.4-5.1-8.4s-5.9,4-5.9,8.2v15.7h-9.9L16.8,15.8z"/>
</g>
</svg>
