<?xml version="1.0" encoding="utf-8"?>
<!-- Generator: Adobe Illustrator 25.0.1, SVG Export Plug-In . SVG Version: 6.00 Build 0)  -->
<svg version="1.1" id="Layer_1" xmlns="http://www.w3.org/2000/svg" xmlns:xlink="http://www.w3.org/1999/xlink" x="0px" y="0px"
	 viewBox="0 0 47.6 38.7" style="enable-background:new 0 0 47.6 38.7;" xml:space="preserve">
<style type="text/css">
	.st0{fill:#C6C6C6;}
</style>
<path id="Twitter-8" class="st0" d="M47.6,4.6C45.8,5.4,44,5.9,42,6.1c2-1.2,3.6-3.1,4.3-5.4c-1.9,1.1-4,1.9-6.2,2.4
	C36.4-0.9,30.2-1,26.3,2.7c-2,1.8-3.1,4.4-3.1,7.1c0,0.8,0.1,1.5,0.2,2.2C15.6,11.6,8.3,7.9,3.3,1.8c-2.6,4.4-1.3,10.1,3,13
	c-1.6,0-3.1-0.5-4.4-1.2v0.1c0,4.6,3.3,8.7,7.8,9.6c-1.4,0.4-2.9,0.4-4.4,0.2c1.3,4,4.9,6.7,9.1,6.8C11,33,6.7,34.4,2.3,34.4
	c-0.8,0-1.6,0-2.3-0.1c4.5,2.9,9.7,4.4,15,4.4c18,0,27.8-14.9,27.8-27.8c0-0.4,0-0.8,0-1.3C44.7,8.2,46.3,6.5,47.6,4.6z"/>
</svg>
