<?xml version="1.0" encoding="utf-8"?>
<!-- Generator: Adobe Illustrator 25.0.1, SVG Export Plug-In . SVG Version: 6.00 Build 0)  -->
<svg version="1.1" id="Layer_1" xmlns="http://www.w3.org/2000/svg" xmlns:xlink="http://www.w3.org/1999/xlink" x="0px" y="0px"
	 viewBox="0 0 46.5 46.5" style="enable-background:new 0 0 46.5 46.5;" xml:space="preserve">
<style type="text/css">
	.st0{fill:#C6C6C6;}
</style>
<path id="Facebook-8" class="st0" d="M43.9,0H2.6C1.1,0,0,1.1,0,2.6v41.4c0,1.4,1.1,2.6,2.6,2.6h22.3v-18h-6.1v-7h6.1v-5.2
	c0-6,3.7-9.3,9-9.3c1.8,0,3.6,0.1,5.4,0.3v6.3h-3.7C32.6,13.6,32,15,32,17v4.5h7l-0.9,7h-6v18h11.9c1.4,0,2.6-1.1,2.6-2.6V2.6
	C46.5,1.2,45.3,0,43.9,0z"/>
</svg>
