<?xml version="1.0" encoding="utf-8"?>
<!-- Generator: Adobe Illustrator 25.0.1, SVG Export Plug-In . SVG Version: 6.00 Build 0)  -->
<svg version="1.1" id="Layer_1" xmlns="http://www.w3.org/2000/svg" xmlns:xlink="http://www.w3.org/1999/xlink" x="0px" y="0px"
	 viewBox="0 0 459.9 460" style="enable-background:new 0 0 459.9 460;" xml:space="preserve">
<style type="text/css">
	.st0{fill:#C6C6C6;}
</style>
<path class="st0" d="M450.6,415.4c-34.9-34.9-69.9-69.9-104.8-104.8c-1.4-1.4-2.6-2.8-3.9-4.1c63.2-83.7,47.6-198.6-30.2-263.1
	c-75.2-62.3-186.8-57-256,12.6c-69.3,69.7-74.5,180.5-12.2,255.7c64.4,77.9,179.3,93.5,263.1,30.2c1.3,1.3,2.6,2.4,3.7,3.5
	c24.9,24.9,49.8,49.9,74.8,74.8c11.4,11.4,22.5,23.2,34.5,33.9c11.2,10,28.6,6.7,36.4-5.8C462.7,437.6,460.8,425.6,450.6,415.4z
	 M190.7,331.5c-77.4,0.2-140.9-63.2-141.1-140.9c-0.2-77.4,63.2-141,140.8-141.1c77.4-0.2,141,63.2,141.1,140.9
	C331.7,267.8,268.3,331.4,190.7,331.5z"/>
</svg>
