<?xml version="1.0" encoding="utf-8"?>
<!-- Generator: Adobe Illustrator 24.2.1, SVG Export Plug-In . SVG Version: 6.00 Build 0)  -->
<svg version="1.1" id="Layer_1" xmlns="http://www.w3.org/2000/svg" xmlns:xlink="http://www.w3.org/1999/xlink" x="0px" y="0px"
	 viewBox="0 0 96 63" style="enable-background:new 0 0 96 63;" xml:space="preserve">
<style type="text/css">
	.st0{fill:#E0E0E0;}
	.st1{opacity:0.6;fill:#E0E0E0;enable-background:new    ;}
</style>
<path class="st0" d="M16,0.8c-8.3,0-15,6.7-15,15s6.7,15,15,15s15-6.7,15-15S24.3,0.8,16,0.8z M15.9,17.3l4.5,4.5
	c0.5,0.5,0.8,1.3,0.7,2c-0.1,0.7-0.5,1.3-1.1,1.6c-0.3,0.2-0.7,0.3-1.1,0.3c-0.6,0-1.2-0.3-1.6-0.7l-7.7-7.6
	c-0.7-0.7-0.9-1.8-0.5-2.7c0.1-0.2,0.3-0.4,0.4-0.6l7.7-7.7c0.6-0.6,1.5-0.8,2.3-0.6c1.2,0.4,1.9,1.6,1.5,2.8
	c-0.1,0.3-0.2,0.6-0.4,0.8c-0.1,0.1-0.1,0.1-0.2,0.2l-6.1,6.1L15.9,17.3z"/>
<path class="st1" d="M16,32.2c-8.3,0-15,6.7-15,15s6.7,15,15,15s15-6.7,15-15S24.3,32.2,16,32.2z M15.9,48.8l4.5,4.5
	c0.5,0.5,0.8,1.3,0.7,2C21,56,20.6,56.6,20,57c-0.3,0.2-0.7,0.3-1.1,0.3c-0.6,0-1.2-0.3-1.6-0.7l-7.7-7.7c-0.7-0.7-0.9-1.8-0.5-2.7
	c0.1-0.2,0.3-0.4,0.4-0.6l7.7-7.6c0.6-0.6,1.5-0.8,2.3-0.6c1.2,0.4,1.9,1.7,1.5,2.9c-0.1,0.3-0.2,0.5-0.4,0.7
	c-0.1,0.1-0.1,0.1-0.2,0.2l-6.1,6.1L15.9,48.8z"/>
<path class="st1" d="M59,62.2c8.3,0,15-6.7,15-15s-6.7-15-15-15s-15,6.7-15,15S50.7,62.2,59,62.2z M59.1,45.7l-4.5-4.5
	c-0.5-0.5-0.8-1.3-0.7-2s0.5-1.3,1.2-1.7c0.3-0.2,0.7-0.3,1.1-0.3c0.6,0,1.2,0.3,1.6,0.7l7.7,7.7c0.7,0.7,0.9,1.8,0.5,2.7
	c-0.1,0.2-0.3,0.4-0.4,0.6l-7.7,7.7c-0.6,0.6-1.5,0.8-2.3,0.6c-1.2-0.4-1.9-1.6-1.5-2.8c0.1-0.3,0.2-0.6,0.4-0.8
	c0.1-0.1,0.1-0.1,0.2-0.2l6.1-6.1L59.1,45.7z"/>
<path class="st0" d="M59,30.8c8.3,0,15-6.7,15-15s-6.7-15-15-15s-15,6.7-15,15S50.7,30.8,59,30.8z M59.1,14.2l-4.5-4.5
	c-0.5-0.5-0.8-1.3-0.7-2C54,7,54.4,6.3,55,6c0.3-0.2,0.7-0.3,1.1-0.3c0.6,0,1.2,0.3,1.6,0.7l7.7,7.6c0.7,0.7,0.9,1.8,0.5,2.7
	c-0.1,0.2-0.3,0.4-0.4,0.6L57.8,25c-0.6,0.6-1.5,0.8-2.3,0.6c-1.2-0.4-1.9-1.7-1.5-2.8c0.1-0.3,0.2-0.5,0.4-0.7
	c0.1-0.1,0.1-0.1,0.2-0.2l6.1-6.1L59.1,14.2z"/>
</svg>
