<?xml version="1.0" encoding="utf-8"?>
<!-- Generator: Adobe Illustrator 25.0.1, SVG Export Plug-In . SVG Version: 6.00 Build 0)  -->
<svg version="1.1" id="Layer_1" xmlns="http://www.w3.org/2000/svg" xmlns:xlink="http://www.w3.org/1999/xlink" x="0px" y="0px"
	 viewBox="0 0 189.8 193" style="enable-background:new 0 0 189.8 193;" xml:space="preserve">
<style type="text/css">
	.st0{fill:#EE2025;}
</style>
<path class="st0" d="M0,89.4c0.2-1.1,0.4-2.1,0.5-3.2c0.3-2,0.5-4,0.7-6c0.1-1,0.5-1.4,1.6-1.4c18.6,0,37.1,0,55.7,0
	c0.4,0,0.9,0.1,1.4,0.1c-2.1,8-2.6,16.1-1.9,24.2c0.8,8.1,2.9,15.8,6.7,23.2c-0.6,0-1,0.1-1.4,0.1c-19.1,0-38.2,0-57.4,0
	c-1,0-1.4-0.4-1.7-1.3c-1.8-6.1-3.2-12.4-3.8-18.8c-0.1-1.1-0.3-2.2-0.5-3.2C0,98.6,0,94,0,89.4z"/>
<path class="st0" d="M7.3,133.4c1.2,0,2.4,0,3.5,0c19,0,37.9,0,56.9,0c1,0,1.6,0.2,2.2,1c4.1,5.3,9.2,9.5,15.6,11.8
	c7.4,2.6,14.6,2.2,21.7-1.2c5.2-2.5,9.5-6.3,13-10.9c0.4-0.5,1.2-0.8,1.8-0.8c10,0,20.1,0,30.1,0c12.1,0,24.2,0,36.4,0
	c1,0,1.3,0.3,1.3,1.3c0,19,0,37.9,0,56.9c0,0.4,0,0.8-0.1,1.2c-0.8,0-1.4,0-2.1,0c-11.7,0-23.4,0-35.2,0c-1.1,0-1.4-0.3-1.4-1.4
	c0.1-5.1,0-10.2,0-15.4c0-0.5,0-1,0-1.5c-30.8,20.7-63.1,24.5-96.9,8.9C29.1,171.8,13.9,150.5,7.3,133.4z"/>
<path class="st0" d="M185.4,67.3c-0.7,0-1.2,0-1.7,0c-18.8,0-37.5,0-56.3,0c-1.3,0-1.9-0.3-2.6-1.5c-3.6-6.7-8.2-12.5-14.8-16.5
	c-9-5.4-18.3-5.9-27.8-1.3c-6.4,3.2-11.3,8.2-15,14.2c-1.9,3.2-3.4,6.7-5,10c-0.3,0.7-0.7,1-1.5,1c-18.9,0-37.8,0-56.8,0
	c-0.3,0-0.6-0.1-1.2-0.1c0.9-3,1.7-5.9,2.7-8.7c3.1-9,7.4-17.4,13.1-25c0.3-0.5,1.1-0.7,1.7-0.9c0.4-0.1,0.9,0,1.3,0
	c49.2,0,98.5,0,147.7,0c1.3,0,2.1,0.4,2.8,1.5c5.7,8.1,10.1,16.8,13.2,26.2C185.2,66.5,185.2,66.8,185.4,67.3z"/>
<path class="st0" d="M189.8,84.2c0,0.6,0,1.1,0,1.5c0,13,0,26,0,39c0,1.7,0,1.7-1.8,1.7c-17.5,0-35,0-52.5,0c-8.4,0-16.7,0-25.1,0
	c-1.6,0-1.6,0-1.6-1.6c0-13,0-26.1,0-39.1c0-1.2,0.3-1.5,1.5-1.5c26,0,52.1,0,78.1,0C188.8,84.2,189.2,84.2,189.8,84.2z"/>
<path class="st0" d="M167.3,34c-48.3,0-96.3,0-144.7,0c1.1-1.3,2-2.5,3-3.5c6.3-6.8,13.5-12.6,21.5-17.4c0.2-0.1,0.5-0.3,0.7-0.4
	c2.3-1.9,5-1.9,7.8-1.9c27.2,0.1,54.5,0,81.7,0.1c0.8,0,1.7,0.3,2.5,0.7c9.2,5,17.3,11.3,24.4,19C165.2,31.5,166.1,32.7,167.3,34z"
	/>
<path class="st0" d="M130.6,7.3c-23.8,0-47.6,0-71.3,0C70.6,2.3,82.5,0,94.9,0C107.2,0,119.2,2.4,130.6,7.3z"/>
</svg>
